<svg viewBox="0 0 24 24" xmlns="http://www.w3.org/2000/svg"><path d="m19.852 10 1.356.753c1.056.587 1.056 1.907 0 2.494L19.852 14l1.356.753c1.056.587 1.056 1.907 0 2.494l-8.051 4.473c-.673.373-1.641.373-2.314 0l-8.05-4.473c-1.057-.587-1.057-1.907 0-2.494L4.147 14l-1.356-.753c-1.056-.587-1.056-1.907 0-2.494L4.148 10l-1.356-.753c-1.056-.587-1.056-1.907 0-2.494l8.051-4.473c.673-.373 1.641-.373 2.314 0l8.05 4.473c1.057.587 1.057 1.907 0 2.494L19.853 10Zm-2.059 1.144-4.636 2.576c-.673.373-1.641.373-2.314 0l-4.636-2.576-1.54.856 7.148 3.971a.616.616 0 0 0 .37 0L19.334 12l-1.541-.856Zm0 4-4.636 2.576c-.673.373-1.641.373-2.314 0l-4.636-2.576-1.54.856 7.148 3.971a.616.616 0 0 0 .37 0L19.334 16l-1.541-.856ZM12.185 4.029a.616.616 0 0 0-.37 0L4.666 8l7.149 3.971a.616.616 0 0 0 .37 0L19.334 8l-7.149-3.971Z" fill-rule="evenodd" fill="#155bd5" class="fill-000000"></path></svg>